<svg width="127" height="130" viewBox="0 0 127 130" fill="none" xmlns="http://www.w3.org/2000/svg">
<path fill-rule="evenodd" clip-rule="evenodd" d="M56.6296 64.2359V46.3558H56.6347L56.6293 30.9284L72.5101 30.9221L72.515 44.711C80.7243 41.2977 86.5248 32.9431 86.5248 23.1779C86.5248 10.3771 76.5575 0 64.2624 0C51.9672 0 42 10.3771 42 23.1779V44.3691V46.3558V64.2359C42 67.8932 44.8478 70.858 48.3607 70.858H50.2689C53.7818 70.858 56.6296 67.8932 56.6296 64.2359ZM68.7957 21.908C68.5966 22.0474 68.3551 22.1304 68.0885 22.1305L61.0572 22.1333C60.7907 22.1334 60.5493 22.0506 60.35 21.9114L57.5538 27.7459C57.1316 28.6267 57.7471 29.662 58.6925 29.6616L70.4587 29.657C71.4041 29.6566 72.0189 28.6207 71.5961 27.7403L68.7957 21.908ZM63.0824 14.2377C63.5143 13.1433 65.0028 13.1427 65.4354 14.2368L66.714 17.4699C67.0587 18.3414 66.4434 19.2982 65.5381 19.2985L62.9833 19.2996C62.078 19.2999 61.4621 18.3436 61.8062 17.4718L63.0824 14.2377Z" fill="#0445FE"/>
<path d="M6.57842 129.049H0V93.2572H1.5788L4.18625 96.3791C4.77634 95.8144 5.42221 95.2819 6.12385 94.7818C6.82558 94.2817 7.55119 93.8542 8.30068 93.4992C9.0662 93.1281 9.85596 92.8378 10.6692 92.628C11.4825 92.4183 12.3037 92.3134 13.1329 92.3134C14.9348 92.3134 16.6257 92.6442 18.2038 93.3056C19.7986 93.951 21.1864 94.8705 22.3662 96.0644C23.5628 97.2583 24.503 98.7022 25.1894 100.396C25.8749 102.074 26.2177 103.938 26.2177 105.986C26.2177 108.116 25.8749 110.036 25.1894 111.746C24.503 113.44 23.5628 114.884 22.3662 116.078C21.1864 117.256 19.7986 118.159 18.2038 118.788C16.6257 119.418 14.9348 119.732 13.1329 119.732C12.5584 119.732 11.9848 119.668 11.4103 119.539C10.8525 119.409 10.2939 119.24 9.73612 119.03C9.19379 118.804 8.65154 118.554 8.10938 118.28C7.58309 118.006 7.07274 117.724 6.57842 117.433V129.049ZM19.6629 105.986C19.6629 104.889 19.4876 103.905 19.1369 103.034C18.8021 102.163 18.3395 101.429 17.75 100.832C17.1596 100.219 16.4662 99.751 15.6688 99.4283C14.8714 99.1056 14.0255 98.9442 13.1329 98.9442C12.2394 98.9442 11.3944 99.1056 10.597 99.4283C9.81543 99.751 9.13 100.219 8.5399 100.832C7.9499 101.429 7.47938 102.163 7.1286 103.034C6.79368 103.905 6.62627 104.889 6.62627 105.986C6.62627 107.035 6.79368 107.995 7.1286 108.866C7.47938 109.737 7.9499 110.48 8.5399 111.093C9.13 111.706 9.81543 112.182 10.597 112.521C11.3944 112.859 12.2394 113.029 13.1329 113.029C14.0255 113.029 14.8714 112.859 15.6688 112.521C16.4662 112.182 17.1596 111.706 17.75 111.093C18.3395 110.48 18.8021 109.737 19.1369 108.866C19.4876 107.995 19.6629 107.035 19.6629 105.986ZM40.0443 112.835C40.2999 112.916 40.5545 112.972 40.81 113.004C41.0647 113.021 41.3202 113.029 41.5748 113.029C42.2128 113.029 42.8269 112.94 43.4173 112.763C44.0076 112.585 44.5575 112.335 45.0676 112.012C45.5937 111.674 46.0563 111.27 46.4554 110.802C46.8696 110.318 47.2044 109.786 47.4599 109.205L52.2444 114.069C51.6382 114.941 50.9369 115.723 50.1394 116.417C49.3579 117.11 48.504 117.699 47.5797 118.183C46.6704 118.667 45.7056 119.03 44.6852 119.272C43.6799 119.531 42.6437 119.66 41.5748 119.66C39.7729 119.66 38.075 119.321 36.4802 118.643C34.9012 117.966 33.5134 117.022 32.3177 115.812C31.1379 114.602 30.2048 113.166 29.5192 111.504C28.8328 109.826 28.4901 107.987 28.4901 105.986C28.4901 103.938 28.8328 102.066 29.5192 100.372C30.2048 98.6781 31.1379 97.2341 32.3177 96.0402C33.5134 94.8464 34.9012 93.9187 36.4802 93.2572C38.075 92.5958 39.7729 92.265 41.5748 92.265C42.6437 92.265 43.6887 92.3941 44.709 92.6522C45.7294 92.9104 46.6942 93.2814 47.6035 93.7654C48.5287 94.2494 49.3896 94.8464 50.187 95.5562C50.9844 96.25 51.6858 97.0325 52.292 97.9036L40.0443 112.835ZM43.3935 99.2104C43.0904 99.0975 42.7873 99.0249 42.4842 98.9926C42.1969 98.9604 41.8938 98.9442 41.5748 98.9442C40.6823 98.9442 39.8373 99.1136 39.0398 99.4524C38.2583 99.7751 37.5728 100.243 36.9824 100.856C36.4079 101.469 35.9541 102.211 35.6184 103.082C35.2836 103.938 35.1162 104.906 35.1162 105.986C35.1162 106.229 35.1241 106.503 35.14 106.809C35.1726 107.116 35.2122 107.43 35.2598 107.753C35.3241 108.06 35.3955 108.358 35.4757 108.648C35.555 108.939 35.6589 109.197 35.7867 109.423L43.3935 99.2104ZM62.1237 119.176H55.5927V93.2572H57.1717L59.3252 95.7741C60.3773 94.806 61.565 94.0639 62.8894 93.5476C64.2287 93.0152 65.6244 92.749 67.0756 92.749C68.6379 92.749 70.1137 93.0556 71.5006 93.6686C72.8884 94.2656 74.1 95.0964 75.1371 96.1612C76.1733 97.2099 76.9866 98.4441 77.5769 99.8638C78.1831 101.268 78.4854 102.768 78.4854 104.365V119.176H71.9553V104.365C71.9553 103.687 71.8275 103.05 71.5729 102.453C71.3174 101.84 70.9667 101.308 70.5199 100.856C70.0732 100.404 69.5551 100.049 68.9648 99.7913C68.3753 99.5331 67.7453 99.404 67.0756 99.404C66.3892 99.404 65.7433 99.5331 65.138 99.7913C64.5318 100.049 64.0058 100.404 63.559 100.856C63.1123 101.308 62.7616 101.84 62.5061 102.453C62.2514 103.05 62.1237 103.687 62.1237 104.365V119.176ZM97.2164 119.176H82.2892V112.593H97.2164C97.6623 112.593 98.0455 112.432 98.3645 112.109C98.6835 111.786 98.843 111.399 98.843 110.947C98.843 110.48 98.6835 110.173 98.3645 110.028C98.0455 109.883 97.6623 109.81 97.2164 109.81H90.4229C89.2906 109.81 88.2298 109.592 87.2411 109.157C86.2525 108.721 85.3908 108.132 84.6577 107.39C83.9237 106.632 83.3421 105.753 82.9113 104.752C82.4963 103.752 82.2892 102.679 82.2892 101.534C82.2892 100.388 82.4963 99.3153 82.9113 98.315C83.3421 97.3148 83.9237 96.4436 84.6577 95.7014C85.3908 94.9593 86.2525 94.3785 87.2411 93.959C88.2298 93.5235 89.2906 93.3056 90.4229 93.3056H103.651V99.8881H90.4229C89.9762 99.8881 89.5929 100.049 89.2739 100.372C88.9549 100.695 88.7954 101.082 88.7954 101.534C88.7954 102.002 88.9549 102.405 89.2739 102.744C89.5929 103.066 89.9762 103.228 90.4229 103.228H97.2164C98.3328 103.228 99.3849 103.421 100.373 103.808C101.362 104.18 102.224 104.704 102.957 105.381C103.691 106.059 104.272 106.874 104.703 107.826C105.134 108.778 105.349 109.818 105.349 110.947C105.349 112.093 105.134 113.166 104.703 114.166C104.272 115.15 103.691 116.022 102.957 116.78C102.224 117.522 101.362 118.111 100.373 118.546C99.3849 118.966 98.3328 119.176 97.2164 119.176ZM116.545 86.215C116.545 86.8281 116.425 87.4008 116.185 87.9332C115.962 88.4656 115.651 88.9335 115.253 89.3368C114.854 89.724 114.383 90.0386 113.842 90.2806C113.316 90.5065 112.749 90.6194 112.143 90.6194C111.537 90.6194 110.963 90.5065 110.421 90.2806C109.894 90.0386 109.431 89.724 109.033 89.3368C108.651 88.9335 108.34 88.4656 108.1 87.9332C107.877 87.4008 107.765 86.8281 107.765 86.215C107.765 85.6181 107.877 85.0534 108.1 84.5209C108.34 83.9725 108.651 83.5046 109.033 83.1173C109.431 82.7141 109.894 82.3994 110.421 82.1735C110.963 81.9316 111.537 81.8105 112.143 81.8105C112.749 81.8105 113.316 81.9316 113.842 82.1735C114.383 82.3994 114.854 82.7141 115.253 83.1173C115.651 83.5046 115.962 83.9725 116.185 84.5209C116.425 85.0534 116.545 85.6181 116.545 86.215ZM115.421 119.176H108.842V93.2572H115.421V119.176ZM126.998 119.176H120.42V82.948H126.998V119.176Z" fill="#0445FE"/>
</svg>
